<svg width="800" height="400" viewBox="0 0 800 400" xmlns="http://www.w3.org/2000/svg"><defs><pattern id="satori_pattern_id_1" x="0" y="0" width="0.125" height="0.25" patternUnits="objectBoundingBox"><radialGradient id="satori_radial_id_1"><stop offset="0" stop-color="lightgray"/><stop offset="0.02" stop-color="lightgray"/><stop offset="0.015" stop-color="transparent"/><stop offset="1" stop-color="transparent"/></radialGradient><mask id="satori_mask_id_1"><rect x="0" y="0" width="100" height="100" fill="#fff"/></mask><rect x="0" y="0" width="100" height="100" fill="transparent"/><circle cx="75" cy="75" width="100" height="100" r="106.06601717798213" fill="url(#satori_radial_id_1)" mask="url(#satori_mask_id_1)"/></pattern><pattern id="satori_pattern_id_0" x="0" y="0" width="0.125" height="0.25" patternUnits="objectBoundingBox"><radialGradient id="satori_radial_id_0"><stop offset="0" stop-color="lightgray"/><stop offset="0.02" stop-color="lightgray"/><stop offset="0.015" stop-color="transparent"/><stop offset="1" stop-color="transparent"/></radialGradient><mask id="satori_mask_id_0"><rect x="0" y="0" width="100" height="100" fill="#fff"/></mask><rect x="0" y="0" width="100" height="100" fill="transparent"/><circle cx="25" cy="25" width="100" height="100" r="106.06601717798213" fill="url(#satori_radial_id_0)" mask="url(#satori_mask_id_0)"/></pattern></defs><mask id="satori_om-id"><rect x="0" y="0" width="800" height="400" fill="#fff"/></mask><rect x="0" y="0" width="800" height="400" fill="white"/><rect x="0" y="0" width="800" height="400" fill="url(#satori_pattern_id_1)"/><rect x="0" y="0" width="800" height="400" fill="url(#satori_pattern_id_0)"/><mask id="satori_om-id-0"><rect x="122" y="113" width="557" height="153" fill="#fff"/></mask><mask id="satori_om-id-0-0"><rect x="122" y="153" width="557" height="73" fill="#fff"/></mask><path fill="black" d="M129.0 202.5L125.5 202.5L125.5 173.5L129.0 173.5L129.0 186.4L144.6 186.4L144.6 173.5L148.1 173.5L148.1 202.5L144.6 202.5L144.6 189.5L129.0 189.5L129.0 202.5ZM172.9 202.5L155.1 202.5L155.1 173.5L172.7 173.5L172.7 176.6L158.6 176.6L158.6 186.4L171.8 186.4L171.8 189.5L158.6 189.5L158.6 199.4L172.9 199.4L172.9 202.5ZM196.1 202.5L179.0 202.5L179.0 173.5L182.6 173.5L182.6 199.4L196.1 199.4L196.1 202.5ZM218.6 202.5L201.5 202.5L201.5 173.5L205.1 173.5L205.1 199.4L218.6 199.4L218.6 202.5ZM247.5 188.0L247.5 188.0Q247.5 192.6 245.8 196.0Q244.1 199.3 241.2 201.1Q238.3 202.9 234.6 202.9L234.6 202.9Q230.9 202.9 228.0 201.1Q225.1 199.3 223.4 196.0Q221.8 192.6 221.8 188.0L221.8 188.0Q221.8 183.4 223.4 180.0Q225.1 176.7 228.0 174.9Q230.9 173.1 234.6 173.1L234.6 173.1Q238.3 173.1 241.2 174.9Q244.1 176.7 245.8 180.0Q247.5 183.4 247.5 188.0ZM244.0 188.0L244.0 188.0Q244.0 184.2 242.8 181.6Q241.5 179.0 239.4 177.7Q237.3 176.3 234.6 176.3L234.6 176.3Q232.0 176.3 229.8 177.7Q227.7 179.0 226.4 181.6Q225.2 184.2 225.2 188.0L225.2 188.0Q225.2 191.8 226.4 194.4Q227.7 197.0 229.8 198.3Q232.0 199.6 234.6 199.6L234.6 199.6Q237.3 199.6 239.4 198.3Q241.5 197.0 242.8 194.4Q244.0 191.8 244.0 188.0ZM252.5 198.6L256.1 198.6L255.9 200.1Q255.6 201.7 255.1 203.6Q254.6 205.4 254.1 207.0Q253.6 208.7 253.3 209.6L253.3 209.6L250.7 209.6Q250.9 208.7 251.2 207.2Q251.5 205.8 251.8 203.9Q252.1 202.1 252.3 200.2L252.3 200.2L252.5 198.6Z M276.9 202.5L276.9 173.5L281.1 173.5L291.0 197.6L291.4 197.6L301.3 173.5L305.5 173.5L305.5 202.5L302.2 202.5L302.2 180.4L301.9 180.4L292.8 202.5L289.6 202.5L280.5 180.4L280.2 180.4L280.2 202.5L276.9 202.5ZM320.5 190.6L310.0 173.5L314.0 173.5L322.1 187.0L322.5 187.0L330.5 173.5L334.6 173.5L324.0 190.6L324.0 202.5L320.5 202.5L320.5 190.6Z M370.0 173.5L373.4 173.5L373.4 202.5L370.0 202.5L354.2 179.7L353.9 179.7L353.9 202.5L350.4 202.5L350.4 173.5L353.8 173.5L369.7 196.3L370.0 196.3L370.0 173.5ZM390.4 178.1L381.7 202.5L378.0 202.5L388.6 173.5L392.3 173.5L403.0 202.5L399.3 202.5L390.6 178.1L390.4 178.1ZM383.0 194.3L383.0 191.2L397.9 191.2L397.9 194.3L383.0 194.3ZM407.5 202.5L407.5 173.5L411.7 173.5L421.6 197.6L421.9 197.6L431.8 173.5L436.0 173.5L436.0 202.5L432.7 202.5L432.7 180.4L432.5 180.4L423.4 202.5L420.2 202.5L411.1 180.4L410.8 180.4L410.8 202.5L407.5 202.5ZM460.9 202.5L443.1 202.5L443.1 173.5L460.6 173.5L460.6 176.6L446.6 176.6L446.6 186.4L459.7 186.4L459.7 189.5L446.6 189.5L446.6 199.4L460.9 199.4L460.9 202.5Z M478.3 173.5L481.8 173.5L481.8 202.5L478.3 202.5L478.3 173.5ZM508.1 180.7L504.7 180.7Q504.5 178.6 502.7 177.4Q500.8 176.2 498.2 176.2L498.2 176.2Q496.3 176.2 494.8 176.8Q493.4 177.4 492.6 178.5Q491.8 179.6 491.8 181.0L491.8 181.0Q491.8 182.2 492.3 183.0Q492.9 183.8 493.8 184.4Q494.7 184.9 495.6 185.3Q496.6 185.6 497.4 185.8L497.4 185.8L500.4 186.6Q501.5 186.9 502.9 187.5Q504.3 188.0 505.6 188.9Q506.9 189.8 507.7 191.2Q508.5 192.6 508.5 194.6L508.5 194.6Q508.5 197.0 507.3 198.9Q506.1 200.8 503.7 201.9Q501.4 203.1 498.0 203.1L498.0 203.1Q494.9 203.1 492.6 202.0Q490.3 201.0 489.0 199.2Q487.7 197.4 487.6 195.0L487.6 195.0L491.2 195.0Q491.3 196.7 492.3 197.8Q493.3 198.8 494.8 199.4Q496.3 199.9 498.0 199.9L498.0 199.9Q500.0 199.9 501.6 199.2Q503.3 198.6 504.2 197.4Q505.1 196.2 505.1 194.6L505.1 194.6Q505.1 193.1 504.3 192.2Q503.5 191.3 502.2 190.8Q500.9 190.2 499.3 189.8L499.3 189.8L495.8 188.7Q492.3 187.8 490.4 185.9Q488.4 184.1 488.4 181.2L488.4 181.2Q488.4 178.7 489.7 176.9Q491.0 175.1 493.3 174.1Q495.5 173.1 498.3 173.1L498.3 173.1Q501.1 173.1 503.3 174.1Q505.5 175.1 506.8 176.8Q508.1 178.5 508.1 180.7L508.1 180.7Z "/><mask id="satori_om-id-0-0-1"><rect x="523" y="153" width="156" height="73" fill="#fff"/></mask><path fill="black" d="M524.0 173.5L530.8 173.5L537.8 195.6L538.1 195.6L545.1 173.5L551.9 173.5L541.9 202.5L534.0 202.5L524.0 173.5ZM555.4 173.5L561.6 173.5L561.6 202.5L555.4 202.5L555.4 173.5ZM592.3 183.6L592.3 183.6L586.1 183.6Q585.9 182.4 585.4 181.5Q584.9 180.5 584.1 179.9Q583.2 179.2 582.2 178.8Q581.1 178.5 579.8 178.5L579.8 178.5Q577.6 178.5 575.9 179.6Q574.2 180.7 573.3 182.8Q572.4 185.0 572.4 188.0L572.4 188.0Q572.4 191.1 573.3 193.2Q574.3 195.3 575.9 196.4Q577.6 197.5 579.8 197.5L579.8 197.5Q581.0 197.5 582.1 197.2Q583.2 196.8 584.0 196.2Q584.8 195.6 585.4 194.7Q585.9 193.8 586.1 192.6L586.1 192.6L592.3 192.6Q592.1 194.6 591.1 196.5Q590.2 198.3 588.6 199.8Q586.9 201.2 584.7 202.1Q582.5 202.9 579.7 202.9L579.7 202.9Q575.8 202.9 572.8 201.2Q569.7 199.4 567.9 196.1Q566.2 192.7 566.2 188.0L566.2 188.0Q566.2 183.2 567.9 179.9Q569.7 176.6 572.8 174.8Q575.9 173.1 579.7 173.1L579.7 173.1Q582.2 173.1 584.4 173.8Q586.6 174.5 588.2 175.8Q589.9 177.2 591.0 179.1Q592.0 181.1 592.3 183.6ZM604.5 178.5L595.6 178.5L595.6 173.5L619.5 173.5L619.5 178.5L610.6 178.5L610.6 202.5L604.5 202.5L604.5 178.5ZM648.9 188.0L648.9 188.0Q648.9 192.8 647.1 196.1Q645.3 199.4 642.2 201.2Q639.2 202.9 635.3 202.9L635.3 202.9Q631.4 202.9 628.3 201.2Q625.3 199.4 623.5 196.1Q621.7 192.7 621.7 188.0L621.7 188.0Q621.7 183.2 623.5 179.9Q625.3 176.6 628.3 174.8Q631.4 173.1 635.3 173.1L635.3 173.1Q639.2 173.1 642.2 174.8Q645.3 176.6 647.1 179.9Q648.9 183.2 648.9 188.0ZM642.7 188.0L642.7 188.0Q642.7 184.9 641.8 182.8Q640.9 180.7 639.2 179.6Q637.5 178.5 635.3 178.5L635.3 178.5Q633.1 178.5 631.4 179.6Q629.7 180.7 628.8 182.8Q627.9 184.9 627.9 188.0L627.9 188.0Q627.9 191.1 628.8 193.2Q629.7 195.3 631.4 196.4Q633.1 197.5 635.3 197.5L635.3 197.5Q637.5 197.5 639.2 196.4Q640.9 195.3 641.8 193.2Q642.7 191.1 642.7 188.0ZM659.6 202.5L653.5 202.5L653.5 173.5L664.9 173.5Q668.2 173.5 670.6 174.6Q672.9 175.8 674.1 177.9Q675.4 180.1 675.4 183.0L675.4 183.0Q675.4 185.9 674.1 187.9Q672.9 190.0 670.5 191.1Q668.1 192.2 664.8 192.2L664.8 192.2L657.1 192.2L657.1 187.3L663.8 187.3Q665.6 187.3 666.7 186.8Q667.9 186.3 668.5 185.4Q669.0 184.4 669.0 183.0L669.0 183.0Q669.0 181.5 668.5 180.5Q667.9 179.5 666.7 179.0Q665.5 178.5 663.8 178.5L663.8 178.5L659.6 178.5L659.6 202.5ZM662.5 189.3L669.2 189.3L676.4 202.5L669.6 202.5L662.5 189.3Z "/><mask id="satori_om-id-1"><rect x="297" y="282" width="206" height="19" fill="#fff"/></mask><path fill="black" d="M298.4 285.3L299.8 285.3L299.8 297.0L298.4 297.0L298.4 285.3Z M310.3 297.2L310.3 297.2Q309.2 297.2 308.3 296.6Q307.5 296.0 307.0 295.0Q306.5 294.0 306.5 292.6L306.5 292.6Q306.5 291.3 307.0 290.2Q307.5 289.2 308.3 288.7Q309.2 288.1 310.3 288.1L310.3 288.1Q311.1 288.1 311.6 288.4Q312.1 288.7 312.4 289.1Q312.6 289.4 312.8 289.6L312.8 289.6L312.9 289.6L312.9 285.3L314.3 285.3L314.3 297.0L313.0 297.0L313.0 295.6L312.8 295.6Q312.6 295.9 312.4 296.2Q312.1 296.6 311.6 296.9Q311.1 297.2 310.3 297.2ZM310.4 296.0L310.4 296.0Q311.2 296.0 311.8 295.5Q312.4 295.1 312.6 294.4Q312.9 293.6 312.9 292.6L312.9 292.6Q312.9 291.6 312.6 290.9Q312.4 290.2 311.8 289.8Q311.3 289.3 310.4 289.3L310.4 289.3Q309.6 289.3 309.0 289.8Q308.4 290.2 308.2 291.0Q307.9 291.7 307.9 292.6L307.9 292.6Q307.9 293.5 308.2 294.3Q308.5 295.1 309.0 295.5Q309.6 296.0 310.4 296.0ZM320.5 297.2L320.5 297.2Q319.3 297.2 318.4 296.6Q317.5 296.0 317.0 295.0Q316.5 294.0 316.5 292.7L316.5 292.7Q316.5 291.3 317.0 290.3Q317.5 289.3 318.3 288.7Q319.2 288.1 320.4 288.1L320.4 288.1Q321.1 288.1 321.8 288.4Q322.4 288.6 323.0 289.1Q323.5 289.6 323.8 290.4Q324.2 291.3 324.2 292.5L324.2 292.5L324.2 293.1L317.4 293.1L317.4 291.9L322.8 291.9Q322.8 291.2 322.5 290.6Q322.2 290.0 321.7 289.7Q321.1 289.3 320.4 289.3L320.4 289.3Q319.6 289.3 319.0 289.7Q318.4 290.1 318.1 290.8Q317.8 291.4 317.8 292.1L317.8 292.1L317.8 292.9Q317.8 293.9 318.2 294.6Q318.5 295.2 319.1 295.6Q319.7 296.0 320.5 296.0L320.5 296.0Q321.1 296.0 321.5 295.8Q321.9 295.7 322.2 295.3Q322.6 295.0 322.7 294.6L322.7 294.6L324.0 295.0Q323.8 295.6 323.3 296.1Q322.9 296.6 322.1 296.9Q321.4 297.2 320.5 297.2ZM331.6 288.2L333.1 288.2L329.8 297.0L328.5 297.0L325.3 288.2L326.7 288.2L329.1 295.2L329.2 295.2L331.6 288.2ZM338.2 297.2L338.2 297.2Q336.9 297.2 336.0 296.6Q335.1 296.0 334.6 295.0Q334.1 294.0 334.1 292.7L334.1 292.7Q334.1 291.3 334.6 290.3Q335.1 289.3 336.0 288.7Q336.9 288.1 338.0 288.1L338.0 288.1Q338.7 288.1 339.4 288.4Q340.1 288.6 340.6 289.1Q341.1 289.6 341.5 290.4Q341.8 291.3 341.8 292.5L341.8 292.5L341.8 293.1L335.1 293.1L335.1 291.9L340.4 291.9Q340.4 291.2 340.1 290.6Q339.8 290.0 339.3 289.7Q338.8 289.3 338.0 289.3L338.0 289.3Q337.2 289.3 336.7 289.7Q336.1 290.1 335.8 290.8Q335.5 291.4 335.5 292.1L335.5 292.1L335.5 292.9Q335.5 293.9 335.8 294.6Q336.1 295.2 336.8 295.6Q337.4 296.0 338.2 296.0L338.2 296.0Q338.7 296.0 339.1 295.8Q339.6 295.7 339.9 295.3Q340.2 295.0 340.4 294.6L340.4 294.6L341.7 295.0Q341.5 295.6 341.0 296.1Q340.5 296.6 339.8 296.9Q339.1 297.2 338.2 297.2ZM343.8 285.3L345.2 285.3L345.2 297.0L343.8 297.0L343.8 285.3ZM351.2 297.2L351.2 297.2Q350.0 297.2 349.1 296.6Q348.2 296.0 347.7 295.0Q347.2 294.0 347.2 292.7L347.2 292.7Q347.2 291.3 347.7 290.3Q348.2 289.3 349.1 288.7Q350.0 288.1 351.2 288.1L351.2 288.1Q352.4 288.1 353.3 288.7Q354.1 289.3 354.6 290.3Q355.1 291.3 355.1 292.7L355.1 292.7Q355.1 294.0 354.6 295.0Q354.1 296.0 353.3 296.6Q352.4 297.2 351.2 297.2ZM351.2 296.0L351.2 296.0Q352.1 296.0 352.7 295.5Q353.2 295.0 353.5 294.3Q353.8 293.5 353.8 292.7L353.8 292.7Q353.8 291.8 353.5 291.0Q353.2 290.3 352.7 289.8Q352.1 289.3 351.2 289.3L351.2 289.3Q350.3 289.3 349.7 289.8Q349.1 290.3 348.8 291.0Q348.6 291.8 348.6 292.7L348.6 292.7Q348.6 293.5 348.8 294.3Q349.1 295.0 349.7 295.5Q350.3 296.0 351.2 296.0ZM358.5 300.2L357.2 300.2L357.2 288.2L358.5 288.2L358.5 289.6L358.6 289.6Q358.8 289.4 359.0 289.1Q359.3 288.7 359.8 288.4Q360.3 288.1 361.2 288.1L361.2 288.1Q362.3 288.1 363.1 288.7Q363.9 289.2 364.4 290.2Q364.9 291.3 364.9 292.6L364.9 292.6Q364.9 294.0 364.4 295.0Q363.9 296.0 363.1 296.6Q362.3 297.2 361.2 297.2L361.2 297.2Q360.3 297.2 359.8 296.9Q359.3 296.6 359.1 296.2Q358.8 295.9 358.6 295.6L358.6 295.6L358.5 295.6L358.5 300.2ZM358.5 292.6L358.5 292.6Q358.5 293.6 358.8 294.4Q359.1 295.1 359.6 295.5Q360.2 296.0 361.0 296.0L361.0 296.0Q361.8 296.0 362.4 295.5Q363.0 295.1 363.3 294.3Q363.5 293.5 363.5 292.6L363.5 292.6Q363.5 291.7 363.3 291.0Q363.0 290.2 362.4 289.8Q361.9 289.3 361.0 289.3L361.0 289.3Q360.2 289.3 359.6 289.8Q359.1 290.2 358.8 290.9Q358.5 291.6 358.5 292.6Z M375.3 297.0L374.0 297.0L371.3 288.2L372.7 288.2L374.6 294.9L374.7 294.9L376.6 288.2L378.0 288.2L379.9 294.9L380.0 294.9L381.8 288.2L383.2 288.2L380.6 297.0L379.3 297.0L377.4 290.3L377.2 290.3L375.3 297.0ZM388.4 297.2L388.4 297.2Q387.1 297.2 386.2 296.6Q385.3 296.0 384.8 295.0Q384.3 294.0 384.3 292.7L384.3 292.7Q384.3 291.3 384.8 290.3Q385.3 289.3 386.2 288.7Q387.1 288.1 388.2 288.1L388.2 288.1Q388.9 288.1 389.6 288.4Q390.3 288.6 390.8 289.1Q391.4 289.6 391.7 290.4Q392.0 291.3 392.0 292.5L392.0 292.5L392.0 293.1L385.3 293.1L385.3 291.9L390.6 291.9Q390.6 291.2 390.3 290.6Q390.1 290.0 389.5 289.7Q389.0 289.3 388.2 289.3L388.2 289.3Q387.4 289.3 386.9 289.7Q386.3 290.1 386.0 290.8Q385.7 291.4 385.7 292.1L385.7 292.1L385.7 292.9Q385.7 293.9 386.0 294.6Q386.3 295.2 387.0 295.6Q387.6 296.0 388.4 296.0L388.4 296.0Q388.9 296.0 389.3 295.8Q389.8 295.7 390.1 295.3Q390.4 295.0 390.6 294.6L390.6 294.6L391.9 295.0Q391.7 295.6 391.2 296.1Q390.7 296.6 390.0 296.9Q389.3 297.2 388.4 297.2ZM395.5 297.0L394.2 297.0L394.2 285.3L395.6 285.3L395.6 289.6L395.7 289.6Q395.8 289.4 396.1 289.1Q396.4 288.7 396.9 288.4Q397.4 288.1 398.2 288.1L398.2 288.1Q399.3 288.1 400.1 288.7Q401.0 289.2 401.5 290.2Q401.9 291.3 401.9 292.6L401.9 292.6Q401.9 294.0 401.5 295.0Q401.0 296.0 400.2 296.6Q399.3 297.2 398.2 297.2L398.2 297.2Q397.4 297.2 396.9 296.9Q396.4 296.6 396.1 296.2Q395.8 295.9 395.7 295.6L395.7 295.6L395.5 295.6L395.5 297.0ZM395.5 292.6L395.5 292.6Q395.5 293.6 395.8 294.4Q396.1 295.1 396.7 295.5Q397.2 296.0 398.0 296.0L398.0 296.0Q398.9 296.0 399.5 295.5Q400.0 295.1 400.3 294.3Q400.6 293.5 400.6 292.6L400.6 292.6Q400.6 291.7 400.3 291.0Q400.0 290.2 399.5 289.8Q398.9 289.3 398.0 289.3L398.0 289.3Q397.2 289.3 396.7 289.8Q396.1 290.2 395.8 290.9Q395.5 291.6 395.5 292.6Z M411.3 297.2L411.3 297.2Q410.5 297.2 409.8 296.9Q409.2 296.5 408.8 296.0Q408.4 295.4 408.4 294.5L408.4 294.5Q408.4 293.7 408.7 293.3Q409.0 292.8 409.4 292.5Q409.9 292.3 410.5 292.1Q411.1 292.0 411.7 291.9L411.7 291.9Q412.5 291.8 413.0 291.8Q413.5 291.7 413.8 291.6Q414.0 291.5 414.0 291.1L414.0 291.1L414.0 291.1Q414.0 290.2 413.5 289.8Q413.1 289.3 412.2 289.3L412.2 289.3Q411.2 289.3 410.7 289.7Q410.1 290.2 409.9 290.6L409.9 290.6L408.6 290.2Q409.0 289.4 409.5 288.9Q410.1 288.5 410.8 288.3Q411.5 288.1 412.1 288.1L412.1 288.1Q412.5 288.1 413.1 288.2Q413.6 288.3 414.1 288.6Q414.7 288.9 415.0 289.6Q415.3 290.2 415.3 291.2L415.3 291.2L415.3 297.0L414.0 297.0L414.0 295.8L413.9 295.8Q413.8 296.1 413.5 296.4Q413.2 296.7 412.6 297.0Q412.1 297.2 411.3 297.2ZM411.5 296.0L411.5 296.0Q412.3 296.0 412.9 295.7Q413.4 295.4 413.7 294.9Q414.0 294.4 414.0 293.8L414.0 293.8L414.0 292.6Q413.9 292.7 413.6 292.8Q413.3 292.9 413.0 292.9Q412.6 293.0 412.2 293.0Q411.9 293.1 411.7 293.1L411.7 293.1Q411.2 293.2 410.7 293.3Q410.3 293.5 410.0 293.8Q409.7 294.1 409.7 294.6L409.7 294.6Q409.7 295.3 410.2 295.6Q410.7 296.0 411.5 296.0ZM419.1 300.2L417.8 300.2L417.8 288.2L419.1 288.2L419.1 289.6L419.2 289.6Q419.4 289.4 419.7 289.1Q419.9 288.7 420.4 288.4Q420.9 288.1 421.8 288.1L421.8 288.1Q422.9 288.1 423.7 288.7Q424.6 289.2 425.0 290.2Q425.5 291.3 425.5 292.6L425.5 292.6Q425.5 294.0 425.0 295.0Q424.6 296.0 423.7 296.6Q422.9 297.2 421.8 297.2L421.8 297.2Q421.0 297.2 420.4 296.9Q419.9 296.6 419.7 296.2Q419.4 295.9 419.2 295.6L419.2 295.6L419.1 295.6L419.1 300.2ZM419.1 292.6L419.1 292.6Q419.1 293.6 419.4 294.4Q419.7 295.1 420.2 295.5Q420.8 296.0 421.6 296.0L421.6 296.0Q422.5 296.0 423.0 295.5Q423.6 295.1 423.9 294.3Q424.2 293.5 424.2 292.6L424.2 292.6Q424.2 291.7 423.9 291.0Q423.6 290.2 423.0 289.8Q422.5 289.3 421.6 289.3L421.6 289.3Q420.8 289.3 420.2 289.8Q419.7 290.2 419.4 290.9Q419.1 291.6 419.1 292.6ZM428.9 300.2L427.5 300.2L427.5 288.2L428.8 288.2L428.8 289.6L429.0 289.6Q429.1 289.4 429.4 289.1Q429.7 288.7 430.2 288.4Q430.7 288.1 431.5 288.1L431.5 288.1Q432.6 288.1 433.5 288.7Q434.3 289.2 434.8 290.2Q435.2 291.3 435.2 292.6L435.2 292.6Q435.2 294.0 434.8 295.0Q434.3 296.0 433.5 296.6Q432.6 297.2 431.5 297.2L431.5 297.2Q430.7 297.2 430.2 296.9Q429.7 296.6 429.4 296.2Q429.1 295.9 429.0 295.6L429.0 295.6L428.9 295.6L428.9 300.2ZM428.9 292.6L428.9 292.6Q428.9 293.6 429.2 294.4Q429.4 295.1 430.0 295.5Q430.6 296.0 431.4 296.0L431.4 296.0Q432.2 296.0 432.8 295.5Q433.3 295.1 433.6 294.3Q433.9 293.5 433.9 292.6L433.9 292.6Q433.9 291.7 433.6 291.0Q433.3 290.2 432.8 289.8Q432.2 289.3 431.4 289.3L431.4 289.3Q430.5 289.3 430.0 289.8Q429.4 290.2 429.1 290.9Q428.9 291.6 428.9 292.6ZM437.3 285.3L438.6 285.3L438.6 297.0L437.3 297.0L437.3 285.3ZM442.4 297.0L441.1 297.0L441.1 288.2L442.4 288.2L442.4 297.0ZM441.8 286.8L441.8 286.8Q441.4 286.8 441.1 286.5Q440.8 286.3 440.8 285.9L440.8 285.9Q440.8 285.5 441.1 285.2Q441.4 285.0 441.8 285.0L441.8 285.0Q442.2 285.0 442.4 285.2Q442.7 285.5 442.7 285.9L442.7 285.9Q442.7 286.3 442.4 286.5Q442.2 286.8 441.8 286.8ZM448.4 297.2L448.4 297.2Q447.2 297.2 446.3 296.6Q445.4 296.0 445.0 295.0Q444.5 294.0 444.5 292.7L444.5 292.7Q444.5 291.3 445.0 290.3Q445.5 289.3 446.3 288.7Q447.2 288.1 448.4 288.1L448.4 288.1Q449.3 288.1 450.1 288.5Q450.8 288.8 451.3 289.4Q451.7 290.0 451.9 290.9L451.9 290.9L450.5 290.9Q450.4 290.3 449.8 289.8Q449.3 289.3 448.4 289.3L448.4 289.3Q447.6 289.3 447.1 289.7Q446.5 290.2 446.1 290.9Q445.8 291.6 445.8 292.6L445.8 292.6Q445.8 293.6 446.1 294.4Q446.5 295.1 447.0 295.5Q447.6 296.0 448.4 296.0L448.4 296.0Q449.0 296.0 449.4 295.8Q449.8 295.6 450.1 295.2Q450.4 294.9 450.5 294.4L450.5 294.4L451.9 294.4Q451.7 295.2 451.3 295.8Q450.9 296.4 450.1 296.8Q449.4 297.2 448.4 297.2ZM456.4 297.2L456.4 297.2Q455.6 297.2 454.9 296.9Q454.2 296.5 453.8 296.0Q453.4 295.4 453.4 294.5L453.4 294.5Q453.4 293.7 453.7 293.3Q454 292.8 454.5 292.5Q455.0 292.3 455.6 292.1Q456.2 292.0 456.8 291.9L456.8 291.9Q457.6 291.8 458.1 291.8Q458.6 291.7 458.8 291.6Q459.0 291.5 459.0 291.1L459.0 291.1L459.0 291.1Q459.0 290.2 458.6 289.8Q458.1 289.3 457.2 289.3L457.2 289.3Q456.2 289.3 455.7 289.7Q455.2 290.2 454.9 290.6L454.9 290.6L453.7 290.2Q454 289.4 454.6 288.9Q455.1 288.5 455.8 288.3Q456.5 288.1 457.2 288.1L457.2 288.1Q457.6 288.1 458.1 288.2Q458.7 288.3 459.2 288.6Q459.7 288.9 460.0 289.6Q460.4 290.2 460.4 291.2L460.4 291.2L460.4 297.0L459.0 297.0L459.0 295.8L459.0 295.8Q458.8 296.1 458.5 296.4Q458.2 296.7 457.7 297.0Q457.1 297.2 456.4 297.2ZM456.6 296.0L456.6 296.0Q457.4 296.0 457.9 295.7Q458.5 295.4 458.8 294.9Q459.0 294.4 459.0 293.8L459.0 293.8L459.0 292.6Q459.0 292.7 458.7 292.8Q458.4 292.9 458.0 292.9Q457.6 293.0 457.3 293.0Q456.9 293.1 456.7 293.1L456.7 293.1Q456.2 293.2 455.8 293.3Q455.3 293.5 455.0 293.8Q454.8 294.1 454.8 294.6L454.8 294.6Q454.8 295.3 455.3 295.6Q455.8 296.0 456.6 296.0ZM462.1 288.2L466.6 288.2L466.6 289.4L462.1 289.4L462.1 288.2ZM463.4 294.8L463.4 286.2L464.8 286.2L464.8 294.5Q464.8 295.0 464.9 295.3Q465.1 295.6 465.4 295.7Q465.6 295.8 465.9 295.8L465.9 295.8Q466.2 295.8 466.3 295.8Q466.4 295.7 466.5 295.7L466.5 295.7L466.8 296.9Q466.7 297.0 466.4 297.0Q466.2 297.1 465.8 297.1L465.8 297.1Q465.2 297.1 464.7 296.8Q464.1 296.6 463.8 296.1Q463.4 295.6 463.4 294.8L463.4 294.8ZM470.0 297.0L468.7 297.0L468.7 288.2L470.0 288.2L470.0 297.0ZM469.3 286.8L469.3 286.8Q468.9 286.8 468.7 286.5Q468.4 286.3 468.4 285.9L468.4 285.9Q468.4 285.5 468.7 285.2Q468.9 285.0 469.3 285.0L469.3 285.0Q469.7 285.0 470.0 285.2Q470.3 285.5 470.3 285.9L470.3 285.9Q470.3 286.3 470.0 286.5Q469.7 286.8 469.3 286.8ZM476.0 297.2L476.0 297.2Q474.8 297.2 473.9 296.6Q473.0 296.0 472.5 295.0Q472.0 294.0 472.0 292.7L472.0 292.7Q472.0 291.3 472.5 290.3Q473.0 289.3 473.9 288.7Q474.8 288.1 476.0 288.1L476.0 288.1Q477.2 288.1 478.1 288.7Q479.0 289.3 479.5 290.3Q480.0 291.3 480.0 292.7L480.0 292.7Q480.0 294.0 479.5 295.0Q479.0 296.0 478.1 296.6Q477.2 297.2 476.0 297.2ZM476.0 296.0L476.0 296.0Q476.9 296.0 477.5 295.5Q478.1 295.0 478.3 294.3Q478.6 293.5 478.6 292.7L478.6 292.7Q478.6 291.8 478.3 291.0Q478.1 290.3 477.5 289.8Q476.9 289.3 476.0 289.3L476.0 289.3Q475.1 289.3 474.5 289.8Q473.9 290.3 473.7 291.0Q473.4 291.8 473.4 292.7L473.4 292.7Q473.4 293.5 473.7 294.3Q473.9 295.0 474.5 295.5Q475.1 296.0 476.0 296.0ZM483.3 291.7L483.3 291.7L483.3 297.0L482 297.0L482 288.2L483.3 288.2L483.3 289.6L483.4 289.6Q483.7 288.9 484.3 288.5Q485.0 288.1 486.0 288.1L486.0 288.1Q486.8 288.1 487.5 288.5Q488.2 288.9 488.5 289.6Q488.9 290.3 488.9 291.4L488.9 291.4L488.9 297.0L487.6 297.0L487.6 291.5Q487.6 290.5 487.0 289.9Q486.5 289.3 485.6 289.3L485.6 289.3Q484.9 289.3 484.4 289.6Q483.9 289.9 483.6 290.4Q483.3 291.0 483.3 291.7ZM497.5 290.2L497.5 290.2L496.3 290.5Q496.2 290.2 496.0 290.0Q495.8 289.7 495.4 289.5Q495.0 289.3 494.5 289.3L494.5 289.3Q493.7 289.3 493.1 289.7Q492.6 290.0 492.6 290.6L492.6 290.6Q492.6 291.1 493.0 291.4Q493.3 291.7 494.1 291.9L494.1 291.9L495.4 292.2Q496.6 292.5 497.1 293.0Q497.7 293.6 497.7 294.5L497.7 294.5Q497.7 295.3 497.3 295.9Q496.8 296.5 496.1 296.8Q495.3 297.2 494.3 297.2L494.3 297.2Q493.0 297.2 492.1 296.6Q491.2 296.0 491.0 294.9L491.0 294.9L492.3 294.6Q492.4 295.3 492.9 295.6Q493.4 296.0 494.3 296.0L494.3 296.0Q495.2 296.0 495.8 295.6Q496.3 295.2 496.3 294.6L496.3 294.6Q496.3 294.2 496 293.8Q495.7 293.5 495.0 293.4L495.0 293.4L493.6 293.0Q492.4 292.8 491.8 292.2Q491.3 291.6 491.3 290.7L491.3 290.7Q491.3 289.9 491.7 289.4Q492.1 288.8 492.8 288.5Q493.5 288.1 494.5 288.1L494.5 288.1Q495.8 288.1 496.5 288.7Q497.2 289.3 497.5 290.2ZM500.7 297.1L500.7 297.1Q500.3 297.1 500.0 296.8Q499.7 296.5 499.7 296.0L499.7 296.0Q499.7 295.6 500.0 295.3Q500.3 295.0 500.7 295.0L500.7 295.0Q501.1 295.0 501.4 295.3Q501.7 295.6 501.7 296.0L501.7 296.0Q501.7 296.3 501.6 296.6Q501.4 296.8 501.2 296.9Q501.0 297.1 500.7 297.1Z "/></svg>